# xmcd
# 
# Track frame offsets:
#     183
#     14553
#     33183
#     46433
#     61928
#     82900
#     108160
#     139558
#     155433
#     194565
#     239738
#     261735
# 
# Disc length: 3790
# 
# Revision: 3
# Processed by: cddbd v1.5.2PL0 Copyright (c) Steve Scherf et al.
# Submitted via: fre:ac v1.0.27
# 
DISCID=a40ecc0c
DTITLE=Count Basie - Orchestra - 1938
DYEAR=0
DGENRE=Jazz
TTITLE0=Sent for you yesterday
TTITLE1=Blue and sentimental
TTITLE2=Shorty George
TTITLE3=Rock-a-Bye Basie
TTITLE4=Cherokee
TTITLE5=Sidewalk of New York
TTITLE6=Annie Laurie
TTITLE7=The Midgets
TTITLE8=Careless Love
TTITLE9=A.M.Romp
TTITLE10=Casey Jones
TTITLE11=Alone in the Night
EXTD=
EXTT0=
EXTT1=
EXTT2=
EXTT3=
EXTT4=
EXTT5=
EXTT6=
EXTT7=
EXTT8=
EXTT9=
EXTT10=
EXTT11=
PLAYORDER=
